<svg xmlns="http://www.w3.org/2000/svg" xmlns:xlink="http://www.w3.org/1999/xlink" width="500" zoomAndPan="magnify" viewBox="0 0 375 374.999991" height="500" preserveAspectRatio="xMidYMid meet" version="1.0"><defs><clipPath id="fcd2aa7ee7"><path d="M 102.421875 136.125 L 272.671875 136.125 L 272.671875 149.625 L 102.421875 149.625 Z M 102.421875 136.125 " clip-rule="nonzero"/></clipPath><clipPath id="5b074a2039"><path d="M 102.421875 181 L 272.671875 181 L 272.671875 194.5 L 102.421875 194.5 Z M 102.421875 181 " clip-rule="nonzero"/></clipPath><clipPath id="6983886a20"><path d="M 102.421875 225.6875 L 272.671875 225.6875 L 272.671875 239.1875 L 102.421875 239.1875 Z M 102.421875 225.6875 " clip-rule="nonzero"/></clipPath></defs><g clip-path="url(#fcd2aa7ee7)"><path fill="#000000" d="M 102.421875 136.171875 L 272.671875 136.171875 L 272.671875 149.574219 L 102.421875 149.574219 Z M 102.421875 136.171875 " fill-opacity="1" fill-rule="nonzero"/></g><g clip-path="url(#5b074a2039)"><path fill="#000000" d="M 102.421875 181.050781 L 272.671875 181.050781 L 272.671875 194.453125 L 102.421875 194.453125 Z M 102.421875 181.050781 " fill-opacity="1" fill-rule="nonzero"/></g><g clip-path="url(#6983886a20)"><path fill="#000000" d="M 102.421875 225.738281 L 272.671875 225.738281 L 272.671875 239.140625 L 102.421875 239.140625 Z M 102.421875 225.738281 " fill-opacity="1" fill-rule="nonzero"/></g></svg>