<svg width="61" height="41" viewBox="0 0 61 41" fill="none" xmlns="http://www.w3.org/2000/svg">
<path d="M2 36.9313V17.8568C2 17.8568 19.17 19.6953 30.5 19.6953C41.83 19.6953 59 17.8568 59 17.8568V36.9313C59 36.9313 41.8826 38.9996 30.5 38.9996C19.1174 38.9996 2 36.9313 2 36.9313Z" stroke="#1D1D1D" stroke-width="4" stroke-linejoin="round"/>
<path d="M2.02008 18.9139C2.02008 18.9139 1.71926 13.4949 3.44602 11.2162C4.70242 9.55831 7.72382 8.65036 7.72382 8.65036C7.72382 8.65036 6.89961 4.78203 7.72382 2.66328C8.65396 0.272242 10.3677 5.1013 12.7147 5.22871C14.8242 5.34322 17.5823 0.514154 18.4183 2.66328C19.2425 4.78203 18.4183 8.65036 18.4183 8.65036C18.4183 8.65036 23.0819 8.84607 24.835 11.2162C26.5388 13.5197 26.261 18.9139 26.261 18.9139" stroke="#1D1D1D" stroke-width="4" stroke-linejoin="round"/>
<path d="M44.2039 17.8568C44.2039 17.8568 44.5066 12.7997 42.6503 10.6402C40.7403 8.41816 35.6593 8.23469 35.6593 8.23469C35.6593 8.23469 36.5573 4.60813 35.6593 2.6218C34.7485 0.606996 31.7436 5.13424 29.4452 5.02689C26.8882 4.90745 25.0211 0.380204 24.0077 2.6218C23.1097 4.60813 24.0077 8.23469 24.0077 8.23469L23.1111 9.43267" stroke="#1D1D1D" stroke-width="4" stroke-linejoin="round"/>
<path d="M58.9838 17.8568C58.9838 17.8568 59.2511 12.7997 57.6123 10.6402C55.926 8.41816 51.4403 8.23469 51.4403 8.23469C51.4403 8.23469 52.2331 4.60813 51.4403 2.6218C50.6362 0.606996 47.9833 5.13424 45.9542 5.02689C43.6968 4.90745 42.0484 0.380204 41.1537 2.6218C40.361 4.60813 41.1537 8.23469 41.1537 8.23469L40 9.43267" stroke="#1D1D1D" stroke-width="4" stroke-linejoin="round"/>
<path d="M2 36.9313V17.8568C2 17.8568 19.17 19.6953 30.5 19.6953C41.83 19.6953 59 17.8568 59 17.8568V36.9313C59 36.9313 41.8826 38.9996 30.5 38.9996C19.1174 38.9996 2 36.9313 2 36.9313Z" stroke="#1D1D1D" stroke-width="4" stroke-linejoin="round"/>
<path d="M2.02008 18.9139C2.02008 18.9139 1.71926 13.4949 3.44602 11.2162C4.70242 9.55831 7.72382 8.65036 7.72382 8.65036C7.72382 8.65036 6.89961 4.78203 7.72382 2.66328C8.65396 0.272242 10.3677 5.1013 12.7147 5.22871C14.8242 5.34322 17.5823 0.514154 18.4183 2.66328C19.2425 4.78203 18.4183 8.65036 18.4183 8.65036C18.4183 8.65036 23.0819 8.84607 24.835 11.2162C26.5388 13.5197 26.261 18.9139 26.261 18.9139" stroke="#1D1D1D" stroke-width="4" stroke-linejoin="round"/>
<path d="M44.2039 17.8568C44.2039 17.8568 44.5066 12.7997 42.6503 10.6402C40.7403 8.41816 35.6593 8.23469 35.6593 8.23469C35.6593 8.23469 36.5573 4.60813 35.6593 2.6218C34.7485 0.606996 31.7436 5.13424 29.4452 5.02689C26.8882 4.90745 25.0211 0.380204 24.0077 2.6218C23.1097 4.60813 24.0077 8.23469 24.0077 8.23469L23.1111 9.43267" stroke="#1D1D1D" stroke-width="4" stroke-linejoin="round"/>
<path d="M58.9838 17.8568C58.9838 17.8568 59.2511 12.7997 57.6123 10.6402C55.926 8.41816 51.4403 8.23469 51.4403 8.23469C51.4403 8.23469 52.2331 4.60813 51.4403 2.6218C50.6362 0.606996 47.9833 5.13424 45.9542 5.02689C43.6968 4.90745 42.0484 0.380204 41.1537 2.6218C40.361 4.60813 41.1537 8.23469 41.1537 8.23469L40 9.43267" stroke="#1D1D1D" stroke-width="4" stroke-linejoin="round"/>
<path d="M17.8334 19.9711V38.4711" stroke="#1D1D1D" stroke-width="4" stroke-linejoin="round"/>
</svg>
