<?xml version="1.0" encoding="UTF-8"?>
<svg id="Layer_1" xmlns="http://www.w3.org/2000/svg" version="1.1" viewBox="0 0 1280 1024">
  <!-- Generator: Adobe Illustrator 30.0.0, SVG Export Plug-In . SVG Version: 2.1.1 Build 123)  -->
  <defs>
    <style>
      .st0 {
        fill: #1d1d1d;
      }
    </style>
  </defs>
  <path class="st0" d="M835.08,709.99c5.66,1.95,11.61,1.15,17.45,1.39,2.64.11,13.66,1.98,14.95.07,2.8-20.53,4.64-41.17,5.29-61.9l54.04,3.56-9.24,59,53.33-1.42-2.14,44.42c-3.07,38.65-8.99,77.42-24.68,113.06l27.44,26.44-15.55,25.09,24.18,1.43-1.42-259.49,29.54.68c32.93.75,65.84.96,98.78,0,9.87-.29,19.78.52,29.54-1.39l-1.42,258.42,1.17,1.68c6.6.07,13.89-.03,20.17-2.03v51.19l-28.06-2.16h-145.12l-28.76,2.16v-48.34l-12.8,18.13-1.71,1.04c-2.81-2.82-19.96-24.55-22.04-24.11-15.16,21.43-33.03,40.23-52.7,57.54-11.02-15.32-23.68-29.26-37.32-42.29,20-14.61,39.19-30.58,53.29-51.2-14.6-12.23-29.79-24.18-46.14-33.82,4.36-13.34,9.87-26.24,13.81-39.75,4.6-15.75,7.79-31.9,11.03-47.98-8.28-1.16-16.64.5-24.9,1.06v-50.48h-.01ZM1084.67,709.99h-53.33v38.03l1.07,1.07h51.2l1.07-1.07v-38.03h0ZM921.12,759.04h-13.51c-4.43,23.12-8.91,46.28-16.41,68.63l13.21,9.58c9.91-24.9,14.28-51.58,16.72-78.21h-.01ZM1084.67,793.17h-53.33v39.81h52.26l1.07-1.07v-38.75h0ZM1031.34,921.13h52.26l1.07-1.07v-41.94l-1.07-1.07h-52.26v44.08Z"/>
  <path class="st0" d="M739.08,58.07l132.65-.03c50.04,3.03,84.47,40.72,87.78,89.97,2.44,36.28-2.67,71.24-30.56,96.69-1.05.96-5.51,4.99-6.41,6.02,30.13,16.33,45.81,53.22,47.63,86.39,3.39,61.6-20.89,121.59-89.2,127.63l-141.89-.03V58.07ZM811.61,227.98h35.2c36.77,0,41.05-43.62,37.24-71.36-2.27-16.56-13.89-37.41-32.97-37.41h-39.46v108.77h0ZM811.61,403.58h50.84c5.82,0,16.38-6.67,20.24-11.04,16.94-19.16,16.88-72.12.71-91.67-3.74-4.52-13.63-11.75-19.53-11.75h-52.26v114.46Z"/>
  <path class="st0" d="M390.65,58.07v167.78c.52.19.85-.71,1.07-.71h92.44c.25,0,.79,1.26,1.78-.36V58.07h73.95v406.65h-73.95v-178.44h-95.28v178.44h-73.95V58.07h73.95-.01Z"/>
  <path class="st0" d="M977.29,464.72l99.18-405.96,80.29-.74,100.7,406.69h-76.09l-20.57-94.96-88.61-.35-21.66,95.31h-73.24ZM1147.95,308.31l-31.64-150.01-32.35,150.01h64-.01Z"/>
  <path class="st0" d="M282.57,210.21h-72.17c-2.05-2.77-.84-7.52-1.04-11.05-1.83-32.75-5.73-84.14-48.04-87.05-47.1-3.24-57.44,41.91-60.78,79.27s-2.66,79.76-1.46,115.91c1.2,36.04,5.11,99.73,52.3,103.4,58.75,4.57,57.27-61.55,58.66-103.08h73.24l-.72,22.39c-6.1,81.69-42.76,147.66-134.06,142.58-89.07-4.96-121.59-83.06-124.79-161.74-1.53-37.5-2.23-87.51,2.26-124.34C36.78,97.88,92.67,32.67,188.71,53.44c71.83,15.54,93.84,91.88,93.86,156.77Z"/>
  <rect class="st0" x="613.22" y="58.07" width="73.24" height="406.65"/>
  <path class="st0" d="M681.84,655.25l.77,1.45c-1.82,10.25-1.45,20.6-1.81,30.93-2.83,80.8.56,162.2-.71,243.14-1.97,22.11-13.15,35.27-35.31,38.63-22.22,3.37-45.48.53-67.82.09-1.73-18.86-7.62-37.03-15.64-54.03,8.42.52,16.84,2.23,25.25,2.83,6.76.48,16.92,1.17,23.49.75,4.76-.31,11.85-.72,12.96-6.24l.19-230.21-2.16-27.34h60.8-.01Z"/>
  <path class="st0" d="M461.76,900.52v58.3l-28.06-2.16c-83.6,1.81-167.51-2.29-251.08,0-11,.3-22.04,1.5-33.03,2.17v-57.23c0-.35,1.17-1.17,1.77-1.09l25.58,2.18c8.54.12,17.12-.24,25.66-.06,68.89,1.5,138.68,1.57,207.58,0,17.23-.39,34.45.11,51.58-2.1h0Z"/>
  <path class="st0" d="M439.01,667.33v56.87c-6.41.12-13.17-1.24-19.52-1.46-76.03-2.64-153.56,2.08-229.75,0l-18.1,1.46v-56.87c5.71-.26,11.77,1.23,17.39,1.45,67.82,2.69,139.69,1.48,207.64-.06,14.16-.32,28.24.26,42.34-1.39Z"/>
  <path class="st0" d="M195.1,780.37c6.5,1.38,12.98,1.11,19.55,1.43,57.31,2.75,115.36-.61,172.83.73l29.36-2.05c.1.51.83,1.4.83,1.66v55.81c-10.08-.9-20.11-1.07-30.21-1.43-53.64-1.9-107.68-.02-161.46-.74l-30.9,2.17v-57.59h0Z"/>
  <path class="st0" d="M641.52,488.39c24.09-1.97,52.36,3.68,69.1,22.2,14.8,16.38,27.6,42.73,3.52,57.51-30.66,18.81-98.18,11.04-130.56-2.3-31.37-12.92-22.94-31.43-2.02-49.91,16-14.14,38.43-25.74,59.96-27.49h0Z"/>
  <path class="st0" d="M483.09,879.18c4.41-8.54,10.33-16.59,15.05-25.11,22.11-39.87,35.23-85.92,39.7-131.29l55.47,14.57.67,2.04c-11.61,60.11-28.65,119.34-60.79,171.77-.44.49-.53.89-1.35.69-.88-.21-10.67-8.76-12.57-10.2-11.23-8.46-23.27-16.87-36.19-22.48h.01Z"/>
  <path class="st0" d="M758.28,722.08c7.08,54.33,28.45,108.17,60.4,152.5-12.15,7.33-24.15,14.8-35.14,23.82-2.24,1.84-11.8,11.53-13.49,11.4-24.19-36.03-41.6-76.26-53.37-118.06-5.03-17.85-8.44-36.1-13.16-54.02l54.75-15.65h0Z"/>
</svg>