<svg width="196" height="184" viewBox="0 0 196 184" fill="none" xmlns="http://www.w3.org/2000/svg">
<path d="M128.721 83.7925L128.766 83.7362C139.579 72.6419 146.004 59.1847 146.308 44.5798C146.521 34.3294 143.686 24.5291 138.409 15.6063C135.776 11.1394 133.098 7.14496 128.586 4.54579C128.237 4.24199 126.864 3.62314 126.864 3.62314C121.452 1.23775 109.807 0.618896 109.807 0.618896V183.788C110.268 183.81 110.741 183.81 111.213 183.81C113.542 183.81 115.849 183.743 118.144 183.596C118.538 183.574 118.943 183.551 119.337 183.518C119.337 183.518 123.894 183.191 128.732 180.795C129.149 180.592 129.565 180.367 129.981 180.131C132.58 178.657 135.157 176.541 137.047 173.526C142.617 164.648 146.094 152.44 146.308 142.088C146.623 126.696 140.085 112.293 128.676 100.389C128.395 100.085 128.102 99.7813 127.798 99.4888L124.164 96.0795C123.455 95.4044 122.87 94.5943 122.577 93.6604C122.431 93.199 122.341 92.6927 122.364 92.1751C122.397 91.545 122.611 90.9037 123.129 90.3411L128.721 83.7925ZM125.48 170.128C125.48 170.128 122.825 173.076 121.092 170.342C120.957 170.162 120.8 169.847 120.642 169.475C120.192 168.373 119.978 167.214 119.978 166.021V164.558L119.359 110.639C119.359 109.964 119.359 109.278 119.483 108.614L119.539 108.367C119.753 107.23 120.518 106.375 121.722 106.375C122.634 106.375 123.253 106.994 123.736 107.714C131.365 118.054 135.585 129.835 135.326 142.268C135.135 151.304 132.085 159.337 127.585 167.135C127.483 167.315 127.371 167.484 127.247 167.652L125.48 170.128ZM119.832 76.5238C119.506 75.4886 119.337 74.4085 119.337 73.317V13.671C119.359 11.3982 119.776 10.543 119.821 10.4418H119.832C120.35 9.60912 120.957 9.32782 121.542 9.32782C121.7 9.32782 121.857 9.35032 122.015 9.38408C122.195 9.42909 122.375 9.48535 122.544 9.57536C122.622 9.60912 122.701 9.65413 122.769 9.68788C122.96 9.78915 123.14 9.91292 123.298 10.0367C123.399 10.1042 123.478 10.183 123.568 10.2505C123.736 10.3855 123.871 10.5205 123.984 10.6443C124.029 10.678 124.063 10.7118 124.085 10.7456L124.209 10.8693L124.22 10.8918L124.31 10.9931C131.579 21.131 135.573 32.6304 135.326 44.7486C135.112 55.6629 131.455 65.9358 125.109 75.0723L125.087 75.1061L124.22 76.0625C124.22 76.0625 121.565 79.258 119.832 76.5238Z" fill="#1D1D1D"/>
<path d="M103.101 178.769C103.101 179.557 102.898 180.288 102.538 180.918C102.234 181.492 101.795 181.987 101.278 182.37H101.267C100.479 182.955 99.5113 183.304 98.4537 183.304C97.7561 183.304 97.1034 183.157 96.5184 182.887C95.2469 182.336 94.2905 181.233 93.9417 179.894C93.8404 179.534 93.7954 179.163 93.7954 178.769C93.7954 176.271 95.877 174.235 98.4537 174.235C101.03 174.235 103.101 176.271 103.101 178.769Z" fill="#1D1D1D"/>
<path d="M86.4029 0V183.81H76.8726V99.0612C76.8726 98.6111 76.5126 98.2511 76.0625 98.2511H52.7262C52.2761 98.2511 51.9161 98.6111 51.9161 99.0612V146.837H42.3857V36.3772H51.9161V87.9106C51.9161 88.3607 52.2761 88.7207 52.7262 88.7207H76.0625C76.5126 88.7207 76.8726 88.3607 76.8726 87.9106V0H86.4029Z" fill="#1D1D1D"/>
<path d="M103.213 0H93.6826V166.01H103.213V0Z" fill="#1D1D1D"/>
<path d="M195.951 88.7321C195.017 60.2874 181.29 35.0046 160.192 18.1268C157.154 15.6964 153.981 13.446 150.662 11.3982V166.021H159.607L160.192 165.436V99.0725C160.192 98.6225 160.552 98.2624 161.003 98.2624H185.824C186.297 98.2624 186.668 98.6562 186.634 99.1288C186.612 99.5113 186.578 99.8939 186.533 100.276C186.51 100.592 186.477 100.895 186.443 101.21L186.375 101.852C186.375 101.998 186.342 102.156 186.33 102.302C186.274 102.797 186.218 103.281 186.15 103.776L186.117 103.978C186.094 104.147 186.072 104.305 186.049 104.462C186.027 104.698 185.993 104.935 185.948 105.16C185.914 105.407 185.88 105.655 185.835 105.891C185.813 106.06 185.79 106.229 185.757 106.397C185.7 106.769 185.633 107.14 185.565 107.523C185.543 107.613 185.532 107.703 185.509 107.793C185.509 107.815 185.509 107.838 185.498 107.86C185.498 107.905 185.487 107.939 185.475 107.984C185.475 107.995 185.475 108.018 185.464 108.029C185.464 108.085 185.442 108.141 185.43 108.198C185.408 108.31 185.397 108.423 185.363 108.535C185.34 108.659 185.318 108.772 185.295 108.895C185.273 109.053 185.239 109.199 185.216 109.345C185.16 109.627 185.093 109.897 185.036 110.167C185.036 110.189 185.025 110.212 185.025 110.234C185.003 110.336 184.98 110.437 184.958 110.538C184.845 111.056 184.733 111.585 184.598 112.102C184.53 112.417 184.451 112.744 184.361 113.059C184.294 113.362 184.215 113.666 184.125 113.97C184.046 114.308 183.956 114.645 183.855 114.983C183.776 115.298 183.686 115.613 183.585 115.928C183.517 116.198 183.439 116.457 183.349 116.727C183.259 117.053 183.157 117.379 183.045 117.706C183.034 117.751 183.022 117.796 183 117.841C183 117.886 182.977 117.931 182.955 117.976C182.876 118.246 182.786 118.527 182.685 118.808C182.595 119.101 182.494 119.393 182.392 119.686C182.257 120.091 182.111 120.496 181.965 120.901C181.807 121.351 181.638 121.801 181.47 122.24C181.177 123.016 180.873 123.793 180.547 124.558C180.288 125.188 180.018 125.829 179.737 126.459C179.546 126.887 179.354 127.303 179.152 127.731C179.107 127.832 179.062 127.933 179.005 128.046C178.96 128.136 178.927 128.226 178.882 128.316C178.837 128.406 178.792 128.496 178.747 128.597C178.702 128.71 178.634 128.834 178.578 128.946C178.544 129.036 178.499 129.126 178.454 129.216C178.353 129.419 178.24 129.633 178.139 129.846C178.027 130.071 177.914 130.296 177.802 130.533C177.802 130.544 177.779 130.555 177.779 130.578C177.543 131.028 177.318 131.467 177.07 131.917C176.868 132.299 176.665 132.671 176.463 133.042C176.373 133.211 176.271 133.391 176.181 133.559C176.103 133.706 176.024 133.852 175.934 133.998C175.9 134.043 175.877 134.088 175.855 134.133C175.81 134.212 175.765 134.291 175.731 134.358C175.63 134.527 175.529 134.696 175.427 134.865C175.236 135.202 175.034 135.551 174.82 135.889C174.651 136.181 174.471 136.474 174.291 136.755C174.111 137.047 173.931 137.34 173.751 137.633C173.301 138.341 172.839 139.039 172.367 139.748C171.906 140.446 171.422 141.132 170.927 141.818C170.724 142.088 170.522 142.37 170.319 142.651C170.128 142.921 169.925 143.191 169.711 143.472C169.689 143.517 169.655 143.562 169.621 143.607L176.001 149.571C187.309 135.146 194.477 117.481 195.782 98.2624C195.928 96.147 196.007 94.0092 196.007 91.8488C196.007 90.8024 195.985 89.7673 195.951 88.7321ZM160.192 87.9219V33.5643C160.192 32.8442 161.07 32.4729 161.576 32.9905C176.148 47.7529 185.419 66.8585 186.713 87.8657C186.747 88.327 186.364 88.7321 185.903 88.7321H161.003C160.552 88.7321 160.192 88.372 160.192 87.9219Z" fill="#1D1D1D"/>
<path d="M69.6939 158.662V183.169C67.0835 182.415 64.518 181.549 61.9976 180.581C31.2239 168.744 8.09007 142.19 1.74403 109.841C1.49649 108.58 1.27146 107.309 1.08018 106.037C0.37131 101.413 0 96.6759 0 91.8489C0 86.2792 0.495081 80.8221 1.44024 75.5112C1.62026 74.4423 1.83405 73.3734 2.05909 72.3157C7.85378 45.1763 25.5079 22.2675 49.5081 8.94536C55.7191 5.50229 62.3464 2.68934 69.3113 0.630249V25.7781H59.781V18.2956C59.781 18.2956 59.9385 14.1437 56.8218 15.0214H56.8105C35.3758 27.4884 19.5444 47.1116 13.5135 70.1329C13.3334 70.808 13.1647 71.4831 13.0071 72.1694C11.5894 78.2229 10.8355 84.5127 10.8355 90.9488C10.8355 97.3848 11.5894 103.686 13.0184 109.739C13.2209 110.617 13.4347 111.495 13.671 112.361H13.6822C19.6907 134.662 34.892 153.712 55.4828 166.1L55.5728 166.156L56.4167 166.651C56.4167 166.651 56.4392 166.651 56.4505 166.674C57.4856 167.191 59.4772 167.833 60.1523 165.56V163.411L60.1636 158.662H69.6939Z" fill="#1D1D1D"/>
</svg>
